<?xml version="1.0" encoding="UTF-8" standalone="no"?>
<!-- Created with Inkscape (http://www.inkscape.org/) -->

<svg
   xmlns:dc="http://purl.org/dc/elements/1.1/"
   xmlns:cc="http://creativecommons.org/ns#"
   xmlns:rdf="http://www.w3.org/1999/02/22-rdf-syntax-ns#"
   xmlns:svg="http://www.w3.org/2000/svg"
   xmlns="http://www.w3.org/2000/svg"
   xmlns:sodipodi="http://sodipodi.sourceforge.net/DTD/sodipodi-0.dtd"
   xmlns:inkscape="http://www.inkscape.org/namespaces/inkscape"
   width="210mm"
   height="297mm"
   viewBox="0 0 210 297"
   version="1.1"
   id="svg8"
   inkscape:version="0.92.5 (2060ec1f9f, 2020-04-08)"
   sodipodi:docname="back.svg">
  <defs
     id="defs2">
    <filter
       inkscape:collect="always"
       style="color-interpolation-filters:sRGB"
       id="filter5440"
       x="-0.14147833"
       width="1.2829567"
       y="-0.14661319"
       height="1.2932264">
      <feGaussianBlur
         inkscape:collect="always"
         stdDeviation="46.638997"
         id="feGaussianBlur5442" />
    </filter>
  </defs>
  <sodipodi:namedview
     id="base"
     pagecolor="#ffffff"
     bordercolor="#666666"
     borderopacity="1.0"
     inkscape:pageopacity="0.0"
     inkscape:pageshadow="2"
     inkscape:zoom="0.7"
     inkscape:cx="210.43564"
     inkscape:cy="533.6563"
     inkscape:document-units="mm"
     inkscape:current-layer="layer1"
     showgrid="false"
     inkscape:window-width="1920"
     inkscape:window-height="1019"
     inkscape:window-x="0"
     inkscape:window-y="30"
     inkscape:window-maximized="1" />
  <metadata
     id="metadata5">
    <rdf:RDF>
      <cc:Work
         rdf:about="">
        <dc:format>image/svg+xml</dc:format>
        <dc:type
           rdf:resource="http://purl.org/dc/dcmitype/StillImage" />
        <dc:title></dc:title>
      </cc:Work>
    </rdf:RDF>
  </metadata>
  <g
     inkscape:label="Layer 1"
     inkscape:groupmode="layer"
     id="layer1">
    <path
       style="fill:none;stroke:#000000;stroke-width:0.26458332px;stroke-linecap:butt;stroke-linejoin:miter;stroke-opacity:1"
       d="M 0,-0.47098423 V 203.63988 C 64.536915,78.361342 438.56149,82.689554 0,-0.47098423 Z"
       id="path4467"
       inkscape:connector-curvature="0"
       sodipodi:nodetypes="ccc" />
    <path
       style="fill:#d45500;opacity:0.72;filter:url(#filter5440);"
       d="m 1.292782,382.02294 c 0,-293.269769 0.3923065,-381.73098774 1.6928945,-381.73098774 5.278991,0 194.8005335,37.72730274 265.4499635,52.84207274 240.30096,51.410095 385.0152,92.675015 461.42857,131.575275 54.28536,27.63541 72.44157,52.81865 57.6603,79.9767 -9.32907,17.1406 -39.87383,40.11665 -82.86341,62.33067 -37.66502,19.46264 -56.94547,28.02141 -206.93975,91.8624 -120.6746,51.36187 -197.86811,89.15917 -267.85714,131.1545 C 124.54159,613.23001 54.082088,677.17182 9.8813242,749.66747 L 1.292782,763.75391 Z"
       id="path4473"
       inkscape:connector-curvature="0"
       transform="scale(0.26458333)" />
    <path
       style="fill:#88aa00;stroke:#000000;stroke-width:0.26458332;stroke-linecap:butt;stroke-linejoin:miter;stroke-opacity:1;stroke-miterlimit:4;stroke-dasharray:0, 2.91041648999999980;stroke-dashoffset:0;opacity:1;"
       d="M 0.37797618,297.37798 210.53274,297.75594 210.91071,151.10119 C -18.668596,218.53908 279.12268,225.93086 0.37797618,297.37798 Z"
       id="path5444"
       inkscape:connector-curvature="0"
       sodipodi:nodetypes="cccc" />
    <path
       style="opacity:1;fill:#88aa00;stroke-width:1.42857134;stroke-miterlimit:4;stroke-dasharray:0, 15.71428478;stroke-dashoffset:0"
       d="m 87.421738,560.15305 c -2.99336,-0.70427 -6.767367,-1.98954 -8.386682,-2.85617 -2.273252,-1.21661 -2.696826,-1.17543 -1.858675,0.18073 0.705414,1.14139 0.390601,1.51264 -0.899034,1.0602 -1.09151,-0.38293 -1.896432,-1.74511 -1.788715,-3.0271 0.109553,-1.30381 -0.469521,-1.91964 -1.314198,-1.3976 -0.941091,0.58163 -1.166341,0.0376 -0.597828,-1.44396 0.501721,-1.30745 0.309714,-2.3772 -0.426681,-2.3772 -0.736395,0 -0.928402,-1.06974 -0.426681,-2.3772 0.648596,-1.69021 0.384986,-2.05137 -0.912169,-1.24968 -1.351831,0.83548 -1.574795,0.34114 -0.860788,-1.9085 0.578907,-1.82397 0.343981,-3.03605 -0.588454,-3.03605 -0.942179,0 -1.199829,-1.40338 -0.655685,-3.57142 0.528026,-2.10383 0.282598,-3.57143 -0.597254,-3.57143 -0.908479,0 -1.176522,-1.95407 -0.684198,-4.98792 0.445184,-2.74334 0.133685,-5.80213 -0.692221,-6.79727 -2.184586,-2.63227 -2.319225,-393.63513 -0.136451,-396.26521 0.87298,-1.05187 1.181774,-3.52799 0.686208,-5.50248 -0.562776,-2.24228 -0.297137,-3.58998 0.707603,-3.58998 0.884746,0 1.238598,-0.96429 0.786338,-2.14286 -0.45226,-1.17857 -0.286948,-2.14285 0.367362,-2.14285 0.654309,0 2.257454,-2.796 3.562544,-6.21333 2.90973,-7.61902 6.687685,-11.299581 15.682885,-15.278585 6.185377,-2.736087 8.95785,-3.00814 26.188396,-2.56978 10.59887,0.269644 19.54643,0.935262 19.88348,1.479151 0.33705,0.543889 3.64138,1.44305 7.34296,1.998135 6.17337,0.925755 9.91492,1.255052 20.60123,1.813138 2.10459,0.109911 4.69196,1.065275 5.74972,2.123033 2.1467,2.146694 13.05978,4.989808 21.99632,5.730558 3.22206,0.26708 6.59706,0.94218 7.5,1.50023 0.90294,0.55805 2.25842,0.63349 3.01217,0.16765 0.75376,-0.46585 2.52161,-0.225 3.92857,0.53521 3.7248,2.01259 16.0641,4.63794 17.53269,3.7303 0.69111,-0.42713 1.67653,-0.0971 2.1898,0.73338 0.51327,0.83049 2.16483,1.11908 3.67014,0.64132 1.64491,-0.52208 2.73691,-0.19379 2.73691,0.82279 0,0.98785 1.18792,1.38081 2.85572,0.94467 1.57066,-0.41073 3.2319,-0.13813 3.69166,0.60578 0.45977,0.74391 2.06754,0.96167 3.57285,0.4839 1.5053,-0.47776 2.73692,-0.27475 2.73692,0.45115 0,0.7259 1.76785,1.36805 3.92857,1.427 8.95648,0.24438 27.5,3.32169 27.5,4.56365 0,1.0341 7.60286,3.22467 12.85714,3.70447 1.17857,0.10761 3.29559,0.68888 4.70447,1.29169 1.40889,0.60281 2.95687,0.70076 3.43999,0.21765 0.4831,-0.48311 1.7329,-0.16918 2.77734,0.69762 1.04443,0.8668 2.80859,1.22695 3.92034,0.80033 1.11176,-0.42663 2.41876,-0.37831 2.90445,0.10737 0.95638,0.95639 5.58598,1.82121 10.04471,1.87637 1.53523,0.019 3.55969,0.67223 4.49882,1.45164 0.93912,0.77941 3.92605,1.61618 6.63762,1.85949 2.71158,0.24332 5.71202,0.92563 6.66766,1.51625 0.95566,0.59063 2.11777,0.69364 2.58249,0.22892 0.46471,-0.46472 1.7232,-0.11606 2.79663,0.77481 1.07341,0.89086 2.35912,1.21229 2.85714,0.71429 0.498,-0.49801 1.648,-0.28921 2.55556,0.46399 1.75848,1.45942 10.83212,3.16948 16.04198,3.02336 1.72892,-0.0485 3.49742,0.4845 3.93,1.18443 0.43257,0.69992 2.07157,0.93654 3.64223,0.5258 1.57064,-0.41073 2.85571,-0.0491 2.85571,0.80357 0,0.85269 0.96429,1.18032 2.14286,0.72806 1.17956,-0.45264 2.14286,-0.0427 2.14286,0.91196 0,0.95464 0.9633,1.3646 2.14286,0.91196 1.17857,-0.45226 2.14285,-0.12462 2.14285,0.72806 0,0.8527 1.28507,1.2143 2.85572,0.80357 1.57065,-0.41073 3.2319,-0.13813 3.69165,0.60578 0.45978,0.74391 2.06755,0.96167 3.57286,0.4839 1.63627,-0.51933 2.73692,-0.19399 2.73692,0.80902 0,0.92273 0.9437,1.31555 2.0971,0.87295 1.15341,-0.44261 2.49322,-0.16381 2.97737,0.61955 0.48414,0.78336 2.11187,1.03339 3.61718,0.55563 1.52997,-0.4856 2.73692,-0.19623 2.73692,0.65617 0,0.83867 1.44643,1.52702 3.21428,1.52969 1.76786,0.003 9,1.61346 16.07143,3.57954 19.9137,5.53664 37.89133,9.42025 39.3718,8.50527 0.73837,-0.45634 1.34249,-0.25605 1.34249,0.44508 0,0.70113 1.76785,1.30367 3.92857,1.33898 2.16071,0.0353 5.85714,0.8884 8.21428,1.89577 2.35715,1.00736 5.08929,1.70029 6.07143,1.53984 0.98215,-0.16044 1.78572,0.42264 1.78572,1.29575 0,0.91411 1.16091,1.219 2.73691,0.71879 1.50532,-0.47776 3.13304,-0.22773 3.61719,0.55563 0.48414,0.78336 1.82395,1.06216 2.97737,0.61956 1.1534,-0.44261 2.0971,-0.0649 2.0971,0.8393 0,0.90422 0.80357,1.48098 1.78571,1.28169 0.98215,-0.19929 3.21503,0.42885 4.96197,1.39586 1.74695,0.96701 5.76148,1.90546 8.92118,2.08543 3.1597,0.17998 5.74824,0.7892 5.75231,1.35383 0.004,0.56462 0.97169,0.65656 2.15026,0.2043 1.17857,-0.45226 2.14285,-0.0727 2.14285,0.84343 0,0.91615 0.67102,1.25101 1.49115,0.74414 0.82014,-0.50687 2.42728,-0.14466 3.57143,0.8049 1.14415,0.94956 2.08028,1.24762 2.08028,0.66235 0,-0.58527 0.93613,-0.28721 2.08029,0.66235 1.14414,0.94956 2.70687,1.33922 3.47271,0.8659 0.76584,-0.47331 1.77887,-0.2353 2.25119,0.52891 0.4723,0.76422 1.73741,1.05231 2.81134,0.6402 1.07394,-0.41211 2.35966,-0.0907 2.85714,0.71428 0.4975,0.80497 1.84825,1.10144 3.00166,0.65884 1.1534,-0.4426 2.0971,-0.0243 2.0971,0.92952 0,0.95464 0.9633,1.3646 2.14286,0.91196 1.17857,-0.45226 2.14285,-0.13083 2.14285,0.71429 0,0.84511 0.96429,1.16654 2.14286,0.71428 1.17857,-0.45226 2.14286,-0.21978 2.14286,0.51661 0,0.7364 0.96428,0.96887 2.14286,0.51661 1.17955,-0.45264 2.14285,-0.0427 2.14285,0.91196 0,0.95384 0.9437,1.37213 2.0971,0.92952 1.15342,-0.4426 2.50416,-0.14613 3.00166,0.65884 0.49749,0.80496 1.7832,1.12639 2.85714,0.71428 1.07393,-0.4121 2.35965,-0.0907 2.85715,0.71429 0.49748,0.80496 1.80378,1.11849 2.90288,0.69673 1.0991,-0.42176 1.99836,-0.0754 1.99836,0.76973 0,0.84512 0.9437,1.17445 2.0971,0.73185 1.15341,-0.44261 2.49804,-0.15603 2.98807,0.63685 0.49001,0.79287 1.62987,1.19528 2.53299,0.89424 0.90312,-0.30104 2.49727,0.30788 3.54255,1.35316 1.04529,1.04528 3.1403,1.98087 4.65562,2.07908 2.64645,0.17153 4.38278,0.49383 6.68367,1.24061 0.58928,0.19126 1.55357,0.27161 2.14286,0.17857 0.58928,-0.0931 1.07142,0.54246 1.07142,1.41224 0,0.86977 0.96429,1.21138 2.14286,0.75912 1.17857,-0.45226 2.14286,-0.17143 2.14286,0.62407 0,0.79549 0.80357,1.31508 1.78571,1.15463 0.98215,-0.16044 3.60752,0.45883 5.83417,1.37617 2.22665,0.91734 4.58246,1.33786 5.23513,0.93448 0.65267,-0.40337 1.42907,-0.006 1.72536,0.88264 0.29627,0.88883 2.27974,1.61605 4.40773,1.61605 2.12797,0 3.86904,0.5625 3.86904,1.25 0,0.6875 0.48214,1.12753 1.07143,0.97785 2.43559,-0.61863 10.35714,2.04369 10.35714,3.48089 0,0.85424 0.423,1.13017 0.93999,0.61317 0.517,-0.51699 1.80271,-0.22399 2.85714,0.65112 1.05444,0.8751 1.927,1.03024 1.93903,0.34474 0.0114,-0.68549 0.49417,-0.56955 1.07143,0.25763 1.5347,2.19917 11.76384,8.20851 11.76384,6.91092 0,-0.60711 0.94384,0.14403 2.09743,1.6692 1.15357,1.52518 2.11786,2.30527 2.14286,1.73354 0.025,-0.57173 2.67948,1.81811 5.8989,5.31075 3.2194,3.49264 6.5944,6.21041 7.5,6.0395 1.02578,-0.19359 1.58635,1.69466 1.48693,5.00861 -0.0877,2.92566 0.39437,4.977 1.07142,4.55856 0.67708,-0.41846 1.23103,0.60077 1.23103,2.26494 0,1.66418 -0.5829,2.66552 -1.29534,2.2252 -0.71244,-0.44031 -0.9326,0.58656 -0.48926,2.28193 0.51655,1.97525 0.25996,2.74497 -0.71428,2.14286 -0.92787,-0.57346 -1.26217,0.0477 -0.85785,1.5939 0.62196,2.37834 -5.92878,10.25594 -7.58914,9.12634 -0.39363,-0.2678 -3.16067,1.66077 -6.14898,4.28572 -2.9883,2.62494 -6.31088,4.96867 -7.3835,5.20828 -1.07262,0.2396 -2.75379,1.48747 -3.73593,2.77305 -0.98215,1.28555 -1.78572,1.89308 -1.78572,1.35005 0,-0.54303 -1.30915,0.32183 -2.90924,1.92192 -1.6001,1.6001 -3.52867,2.52644 -4.28571,2.05855 -0.75706,-0.46788 -1.37648,-0.13197 -1.37648,0.74649 0,0.87846 -0.64285,1.19989 -1.42857,0.71429 -0.78571,-0.4856 -1.42857,-0.095 -1.42857,0.86807 0,0.96304 -0.40103,1.34994 -0.89117,0.8598 -1.03267,-1.03266 -11.33169,3.94723 -12.68204,6.13215 -0.50046,0.80976 -1.50836,1.10245 -2.23979,0.65039 -0.73141,-0.45204 -1.32986,-0.14114 -1.32986,0.69099 0,0.83208 -0.48214,1.43675 -1.07142,1.34371 -0.58929,-0.093 -1.39286,-0.0453 -1.78572,0.10614 -0.39286,0.15143 -2.13843,0.54156 -3.87904,0.86695 -4.32496,0.80848 -23.86343,9.55378 -24.45726,10.9469 -0.26354,0.61827 -1.06711,0.76074 -1.78571,0.31661 -0.7186,-0.4441 -1.30656,-0.0887 -1.30656,0.78971 0,0.87846 -0.64286,1.19989 -1.42857,0.71429 -0.78572,-0.4856 -1.42857,-0.13329 -1.42857,0.78281 0,0.91615 -0.96429,1.2957 -2.14286,0.84343 -1.17857,-0.45225 -2.14286,-0.16167 -2.14286,0.64576 0,0.80743 -0.64285,1.07074 -1.42857,0.58514 -0.78571,-0.4856 -1.42857,-0.16417 -1.42857,0.71429 0,0.87846 -0.64286,1.19988 -1.42857,0.71428 -0.78572,-0.4856 -1.42857,-0.16417 -1.42857,0.71429 0,0.87846 -0.64286,1.19989 -1.42857,0.71429 -0.78572,-0.4856 -1.42858,-0.16418 -1.42858,0.71428 0,0.87846 -0.59844,1.22734 -1.32985,0.7753 -0.73143,-0.45206 -1.74013,-0.15807 -2.24157,0.65327 -0.50145,0.81135 -1.51015,1.10533 -2.24158,0.65327 -0.73141,-0.45204 -1.32985,-0.10315 -1.32985,0.7753 0,0.87846 -0.59845,1.22735 -1.32986,0.7753 -0.73143,-0.45205 -1.74013,-0.15807 -2.24157,0.65328 -0.50144,0.81134 -1.51014,1.10532 -2.24157,0.65327 -0.73142,-0.45205 -1.32986,-0.10316 -1.32986,0.7753 0,0.87845 -0.59103,1.23191 -1.3134,0.78547 -0.72237,-0.44646 -2.17454,0.0494 -3.22704,1.10191 -1.0525,1.0525 -2.71147,1.64769 -3.6866,1.32265 -0.97513,-0.32505 -1.77296,0.14338 -1.77296,1.04094 0,0.89757 -0.64286,1.23463 -1.42857,0.74903 -0.78572,-0.4856 -1.42857,-0.16417 -1.42857,0.71428 0,0.87846 -0.64286,1.19989 -1.42857,0.71429 -0.78572,-0.4856 -1.42858,-0.16417 -1.42858,0.71428 0,0.87846 -0.64285,1.19989 -1.42857,0.71429 -0.78571,-0.4856 -1.42857,-0.13329 -1.42857,0.78281 0,0.91615 -0.96428,1.2957 -2.14286,0.84343 -1.17857,-0.45225 -2.14285,-0.16167 -2.14285,0.64576 0,0.80743 -0.64286,1.07074 -1.42857,0.58514 -0.78572,-0.4856 -1.42858,-0.33891 -1.42858,0.32597 0,0.66489 -1.43691,1.31712 -3.19312,1.4494 -1.75622,0.13229 -3.41828,0.91596 -3.69345,1.74149 -0.27517,0.82551 -1.08827,1.13757 -1.80687,0.69344 -0.7186,-0.44411 -1.30656,-0.0196 -1.30656,0.94349 0,0.96304 -0.39795,1.35301 -0.88435,0.86663 -0.48639,-0.4864 -1.855,0.0863 -3.04135,1.27263 -1.18634,1.18634 -3.03838,1.81875 -4.11564,1.40538 -1.07726,-0.41338 -1.95866,-0.14911 -1.95866,0.58729 0,0.7364 -0.96428,0.96887 -2.14285,0.51661 -1.17857,-0.45227 -2.14286,-0.0727 -2.14286,0.84343 0,0.91614 -0.64286,1.26841 -1.42857,0.78281 -0.78572,-0.4856 -1.42857,-0.16417 -1.42857,0.71429 0,0.87846 -0.64286,1.19989 -1.42857,0.71429 -0.78572,-0.4856 -1.42858,-0.16418 -1.42858,0.71428 0,0.87846 -0.64285,1.19989 -1.42857,0.71429 -0.78571,-0.4856 -1.42857,-0.2801 -1.42857,0.45665 0,1.40625 -2.59014,2.48878 -16.07143,6.71689 -4.51785,1.41693 -8.21428,3.15261 -8.21428,3.85709 0,0.70447 -0.64286,0.88354 -1.42857,0.39794 -0.78572,-0.4856 -1.42858,-0.16417 -1.42858,0.71428 0,0.87846 -0.64285,1.19989 -1.42857,0.71429 -0.78571,-0.4856 -1.42857,-0.30926 -1.42857,0.39189 0,0.70112 -0.97014,1.27478 -2.15588,1.27478 -2.63952,0 -16.94446,6.48682 -17.60899,7.98509 -0.26354,0.59418 -1.06711,0.71695 -1.78571,0.27283 -0.7186,-0.44412 -1.30656,-0.23385 -1.30656,0.4673 0,0.70112 -0.97014,1.27478 -2.15589,1.27478 -2.63951,0 -16.94445,6.48682 -17.60898,7.98509 -0.26355,0.59418 -1.06712,0.71695 -1.78572,0.27283 -0.7186,-0.44412 -1.30655,-0.23385 -1.30655,0.4673 0,0.70112 -0.89392,1.27478 -1.98646,1.27478 -3.17627,0 -10.87069,3.55289 -10.87069,5.01953 0,0.73676 -0.64285,0.94226 -1.42857,0.45666 -0.78571,-0.4856 -1.42857,-0.20212 -1.42857,0.62997 0,0.83208 -0.48214,1.38551 -1.07143,1.22984 -1.78744,-0.47217 -7.5,1.82769 -7.5,3.01949 0,1.35577 -10.69278,6.31117 -13.61828,6.31117 -1.1528,0 -2.096,0.42857 -2.096,0.95238 0,0.52382 -0.97015,0.95239 -2.15589,0.95239 -3.10676,0 -16.41554,6.44341 -16.41554,7.94754 0,0.69779 -0.59845,0.89885 -1.32986,0.4468 -0.73143,-0.45205 -1.74013,-0.15807 -2.24157,0.65327 -0.50144,0.81135 -1.51014,1.10533 -2.24157,0.65328 -0.73142,-0.45205 -1.32986,-0.10316 -1.32986,0.7753 0,0.87845 -0.5106,1.28162 -1.13466,0.89594 -1.68231,-1.03973 -13.15105,4.42067 -13.15105,6.26137 0,0.8705 -0.64286,1.18543 -1.42858,0.69983 -0.78571,-0.4856 -1.42857,-0.16417 -1.42857,0.71428 0,0.87846 -0.64285,1.19989 -1.42857,0.71429 -0.78571,-0.4856 -1.42857,-0.16417 -1.42857,0.71429 0,0.87845 -0.64286,1.19988 -1.42857,0.71428 -0.78572,-0.4856 -1.42857,-0.22228 -1.42857,0.58514 0,0.80743 -0.8814,1.12982 -1.95866,0.71643 -1.07726,-0.41337 -3.00583,0.29557 -4.28571,1.57546 -1.27989,1.27987 -2.32706,1.95046 -2.32706,1.49016 0,-1.20899 -17.76477,7.88987 -18.3363,9.3916 -0.26354,0.69245 -1.06712,0.89564 -1.78572,0.45151 -0.7186,-0.44411 -1.30655,-0.0888 -1.30655,0.7897 0,0.87846 -0.64286,1.19989 -1.42857,0.71429 -0.78572,-0.4856 -1.42858,-0.16417 -1.42858,0.71428 0,0.87846 -0.6474,1.19707 -1.43865,0.70805 -0.79127,-0.48902 -1.82292,0.11214 -2.29256,1.33605 -0.46963,1.22387 -1.42939,1.86953 -2.13276,1.43482 -0.70338,-0.43472 -1.27888,-0.0717 -1.27888,0.8068 0,0.87845 -0.64286,1.19988 -1.42857,0.71428 -0.78572,-0.4856 -1.42858,-0.33891 -1.42858,0.32597 0,0.66489 -1.43691,1.31712 -3.19312,1.4494 -1.75622,0.13229 -3.41828,0.91596 -3.69345,1.74149 -0.27517,0.82551 -1.08827,1.13757 -1.80687,0.69344 -0.7186,-0.44411 -1.30656,-0.0888 -1.30656,0.7897 0,0.87846 -0.61941,1.21437 -1.37647,0.74649 -0.75704,-0.46789 -2.63204,0.40488 -4.16665,1.9395 -1.53462,1.53461 -3.1652,2.4152 -3.62355,1.95687 -0.45833,-0.45833 -0.83333,-0.0454 -0.83333,0.91764 0,0.96305 -0.64285,1.35367 -1.42857,0.86807 -0.78571,-0.4856 -1.42857,-0.16417 -1.42857,0.71429 0,0.87846 -0.64286,1.19989 -1.42857,0.71429 -0.78571,-0.4856 -1.42857,-0.16418 -1.42857,0.71428 0,0.87846 -0.64286,1.19989 -1.42857,0.71429 -0.78572,-0.4856 -1.42857,-0.16417 -1.42857,0.71428 0,0.87846 -0.5755,1.24152 -1.27889,0.8068 -0.70337,-0.43471 -1.6828,0.26222 -2.17647,1.54873 -0.49369,1.28652 -1.25313,1.9836 -1.68766,1.54909 -1.2499,-1.24992 -12.87911,4.36623 -23.97148,11.57663 -5.59418,3.6364 -10.65336,6.46215 -11.24265,6.27948 -0.58928,-0.18268 -1.07143,0.34864 -1.07143,1.18073 0,0.83209 -0.64285,1.11557 -1.42857,0.62997 -0.78571,-0.4856 -1.42857,-0.21861 -1.42857,0.59329 0,1.85381 -7.893,6.03753 -9.1046,4.82593 -0.49247,-0.49248 -0.8954,-0.10743 -0.8954,0.85557 0,0.96304 -0.55746,1.40644 -1.2388,0.98535 -1.22006,-0.75404 -17.21846,9.6741 -18.92092,12.3331 -0.4807,0.75079 -1.44499,1.36998 -2.14286,1.37596 -2.16645,0.0186 -17.69742,10.0766 -17.69742,11.46102 0,0.72041 -0.6106,0.93245 -1.3569,0.47122 -0.74629,-0.46124 -2.0512,0.45872 -2.89979,2.04433 -0.8486,1.58562 -2.01827,2.72862 -2.59927,2.54002 -0.581,-0.18862 -2.58773,1.08127 -4.45941,2.82195 -1.87167,1.74069 -3.94854,2.82775 -4.61526,2.41569 -0.66673,-0.41206 -1.21223,-0.0305 -1.21223,0.848 0,0.87846 -0.59887,1.22707 -1.33082,0.7747 -0.73196,-0.45237 -2.3391,0.61701 -3.57143,2.37641 -1.23233,1.7594 -2.26105,2.57372 -2.28604,1.80962 -0.025,-0.76412 -0.83088,-0.42502 -1.79088,0.75356 -0.96,1.17857 -2.63377,2.3326 -3.71949,2.5645 -2.78072,0.59394 -14.44419,8.76825 -14.44419,10.12317 0,0.61701 -0.90176,1.12185 -2.0039,1.12185 -2.17806,0 -16.9805,9.01466 -17.76098,10.81642 -0.26353,0.60837 -1.0671,0.74277 -1.78571,0.29864 -0.71861,-0.44411 -1.30656,-0.11444 -1.30656,0.73262 0,0.93548 -1.542249,1.20364 -3.928568,0.68304 -3.025086,-0.65994 -3.435761,-0.50697 -1.785714,0.66518 1.904761,1.35312 1.904761,1.50873 0,1.40063 -1.178572,-0.0669 -4.59197,-0.69784 -7.58533,-1.4021 z"
       id="path5802"
       inkscape:connector-curvature="0"
       transform="scale(0.26458333)" />
  </g>
</svg>
